<svg width="28" height="28" viewBox="0 0 28 28" fill="black" xmlns="http://www.w3.org/2000/svg">
<g id="icon/navigation/arrow_back_24px">
<path id="icon/navigation/arrow_back_24px_2" d="M21.9231 12.8392H8.89147L14.5848 7.14585C15.0398 6.69085 15.0398 5.94418 14.5848 5.48918C14.3668 5.27072 14.0709 5.14795 13.7623 5.14795C13.4537 5.14795 13.1578 5.27072 12.9398 5.48918L5.25147 13.1775C4.79647 13.6325 4.79647 14.3675 5.25147 14.8225L12.9398 22.5108C13.3948 22.9658 14.1298 22.9658 14.5848 22.5108C15.0398 22.0558 15.0398 21.3208 14.5848 20.8658L8.89147 15.1725H21.9231C22.5648 15.1725 23.0898 14.6475 23.0898 14.0058C23.0898 13.3642 22.5648 12.8392 21.9231 12.8392Z" fill="#333333"/>
</g>
</svg>
